<mxfile host="app.diagrams.net" modified="2023-08-30T05:44:50.698Z" agent="Mozilla/5.0 (Windows NT 10.0; Win64; x64) AppleWebKit/537.36 (KHTML, like Gecko) Chrome/116.0.0.0 Safari/537.36" version="21.7.0" etag="EFuYfL8zMYt6Tgcgt5fG" type="github">
  <diagram name="페이지-1" id="L_YRV9xL1lkC9OHobjNg">
    <mxGraphModel>
      <root>
        <mxCell id="0" />
        <mxCell id="1" parent="0" />
      </root>
    </mxGraphModel>
  </diagram>
</mxfile>
